<?xml version="1.0" encoding="utf-8"?>
<!-- Generator: Adobe Illustrator 25.0.0, SVG Export Plug-In . SVG Version: 6.00 Build 0)  -->
<svg version="1.1" id="圖層_1" xmlns="http://www.w3.org/2000/svg" xmlns:xlink="http://www.w3.org/1999/xlink" x="0px" y="0px"
	 viewBox="0 0 1920 500" style="enable-background:new 0 0 1920 500;" xml:space="preserve">
<style type="text/css">
	.st0{fill:#FFFFFF;}
	.st1{stroke:#000000;stroke-miterlimit:10;}
	.st2{font-family:'AdobeMingStd-Light-B5pc-H';}
	.st3{font-size:36px;}
	.st4{fill:none;stroke:#000000;stroke-width:3;stroke-miterlimit:10;}
</style>
<g>
	<ellipse class="st0" cx="407.72" cy="250.49" rx="172" ry="112"/>
	<path d="M407.72,139.99c94.01,0,170.5,49.57,170.5,110.5s-76.49,110.5-170.5,110.5s-170.5-49.57-170.5-110.5
		S313.71,139.99,407.72,139.99 M407.72,136.99c-95.82,0-173.5,50.82-173.5,113.5s77.68,113.5,173.5,113.5s173.5-50.82,173.5-113.5
		S503.54,136.99,407.72,136.99L407.72,136.99z"/>
</g>
<g>
	<ellipse class="st0" cx="947.72" cy="250.49" rx="174" ry="112"/>
	<path d="M947.72,139.99c95.12,0,172.5,49.57,172.5,110.5s-77.38,110.5-172.5,110.5c-95.12,0-172.5-49.57-172.5-110.5
		S852.6,139.99,947.72,139.99 M947.72,136.99c-96.93,0-175.5,50.82-175.5,113.5s78.57,113.5,175.5,113.5s175.5-50.82,175.5-113.5
		S1044.65,136.99,947.72,136.99L947.72,136.99z"/>
</g>
<g>
	<ellipse class="st0" cx="1499.72" cy="250.49" rx="184" ry="112"/>
	<path d="M1499.72,139.99c100.63,0,182.5,49.57,182.5,110.5s-81.87,110.5-182.5,110.5s-182.5-49.57-182.5-110.5
		S1399.09,139.99,1499.72,139.99 M1499.72,136.99c-102.45,0-185.5,50.82-185.5,113.5s83.05,113.5,185.5,113.5
		c102.45,0,185.5-50.82,185.5-113.5S1602.17,136.99,1499.72,136.99L1499.72,136.99z"/>
</g>
<text transform="matrix(1 0 0 1 274.0418 261.5381)" class="st1 st2 st3">SOCIAL MEDIA</text>
<text transform="matrix(1 0 0 1 908.494 261.6646)" class="st1 st2 st3">NFT</text>
<text transform="matrix(1 0 0 1 1373.8192 261.6646)" class="st1 st2 st3">BLOCK CHAIN</text>
<line class="st4" x1="628.72" y1="250.49" x2="718.72" y2="250.49"/>
<line class="st4" x1="673.72" y1="197.49" x2="673.72" y2="292.49"/>
<line class="st4" x1="1162.72" y1="250.49" x2="1253.72" y2="250.49"/>
<line class="st4" x1="1207.72" y1="197.49" x2="1207.72" y2="292.49"/>
</svg>
